<?xml version="1.0" encoding="UTF-8"?><svg xmlns="http://www.w3.org/2000/svg" xmlns:xlink="http://www.w3.org/1999/xlink" width="224.87999" zoomAndPan="magnify" viewBox="0 0 224.87999 225" height="225" preserveAspectRatio="xMidYMid meet" version="1.0"><defs><clipPath id="clip-0"><path d="M 99 103 L 207.089844 103 L 207.089844 222 L 99 222 Z M 99 103 " clip-rule="nonzero"/></clipPath><clipPath id="clip-1"><path d="M 17.441406 4 L 190 4 L 190 196 L 17.441406 196 Z M 17.441406 4 " clip-rule="nonzero"/></clipPath></defs><g clip-path="url(#clip-0)"><path fill="rgb(10.978699%, 74.508667%, 98.81897%)" d="M 206.875 120.683594 C 209.601562 175.671875 189.277344 208.148438 153.269531 221.703125 C 118.496094 209.015625 97.941406 177.9375 99.464844 119.832031 C 117.753906 120.789062 135.6875 116.859375 153.074219 103.355469 C 168.457031 113.125 188.128906 122.382812 206.875 120.683594 Z M 123.984375 157.125 L 134.289062 156.980469 L 134.464844 156.980469 L 135.246094 157.195312 L 135.441406 157.195312 C 136.5 157.796875 137.527344 158.449219 138.519531 159.160156 C 139.511719 159.847656 140.46875 160.59375 141.386719 161.351562 C 142.308594 162.113281 142.714844 162.519531 143.351562 163.121094 L 144.644531 164.414062 C 146.332031 161.738281 148.105469 159.140625 149.957031 156.628906 C 151.957031 153.832031 154.027344 151.160156 156.117188 148.628906 C 158.207031 146.097656 160.773438 143.320312 163.199219 140.679688 C 165.625 138.042969 168.121094 135.777344 170.671875 133.476562 C 170.730469 133.425781 170.792969 133.386719 170.867188 133.355469 L 171.875 132.964844 L 183.382812 132.964844 C 183.566406 132.964844 183.722656 133.027344 183.851562 133.15625 C 183.984375 133.28125 184.050781 133.4375 184.054688 133.621094 C 184.050781 133.804688 183.988281 133.964844 183.859375 134.097656 L 181.59375 136.59375 C 178.125 140.453125 174.820312 144.367188 171.679688 148.34375 C 168.492188 152.34375 165.484375 156.433594 162.617188 160.558594 C 159.746094 164.679688 157.09375 168.839844 154.542969 173.085938 C 151.992188 177.335938 149.550781 181.6875 147.285156 186.078125 L 145.851562 188.820312 C 145.765625 188.980469 145.636719 189.085938 145.464844 189.140625 C 145.292969 189.195312 145.125 189.183594 144.964844 189.105469 C 144.820312 189.039062 144.722656 188.933594 144.664062 188.785156 L 143.371094 186.007812 C 142.203125 183.484375 140.890625 181.035156 139.441406 178.660156 C 138.023438 176.351562 136.460938 174.144531 134.75 172.042969 C 131.316406 167.773438 127.339844 164.089844 122.816406 161 C 122.695312 160.914062 122.613281 160.800781 122.566406 160.660156 C 122.519531 160.519531 122.523438 160.378906 122.570312 160.238281 L 123.382812 157.511719 C 123.425781 157.367188 123.511719 157.246094 123.636719 157.160156 C 123.761719 157.070312 123.902344 157.027344 124.054688 157.035156 Z M 123.984375 157.125 " fill-opacity="1" fill-rule="evenodd"/></g><g clip-path="url(#clip-1)"><path fill="rgb(10.978699%, 74.508667%, 98.81897%)" d="M 161.871094 35.199219 L 178.019531 35.199219 C 178.773438 35.199219 179.523438 35.273438 180.265625 35.421875 C 181.007812 35.570312 181.730469 35.785156 182.429688 36.074219 C 183.125 36.363281 183.792969 36.71875 184.421875 37.136719 C 185.050781 37.558594 185.632812 38.035156 186.167969 38.566406 C 186.703125 39.101562 187.183594 39.683594 187.605469 40.308594 C 188.027344 40.9375 188.382812 41.601562 188.671875 42.300781 C 188.964844 42.996094 189.183594 43.714844 189.332031 44.457031 C 189.484375 45.199219 189.558594 45.949219 189.5625 46.703125 L 188.976562 91.871094 L 179.683594 90.277344 L 179.683594 46.703125 C 179.691406 46.242188 179.519531 45.855469 179.167969 45.554688 C 178.855469 45.230469 178.472656 45.0625 178.019531 45.058594 L 161.871094 45.058594 L 161.871094 84.332031 C 158.632812 82.5625 155.355469 80.507812 152.046875 78.417969 L 152.046875 15.769531 C 152.050781 15.3125 151.886719 14.925781 151.550781 14.617188 C 151.226562 14.296875 150.835938 14.125 150.382812 14.105469 L 28.984375 14.105469 C 28.523438 14.105469 28.140625 14.277344 27.832031 14.617188 C 27.496094 14.925781 27.324219 15.308594 27.320312 15.769531 L 27.320312 153.8125 C 27.316406 154.28125 27.488281 154.667969 27.832031 154.980469 C 28.148438 155.308594 28.53125 155.472656 28.984375 155.476562 L 81.175781 155.476562 C 81.847656 158.863281 82.605469 162.15625 83.441406 165.351562 L 54.992188 165.351562 L 54.992188 183.707031 C 54.984375 184.167969 55.152344 184.554688 55.503906 184.855469 C 55.8125 185.195312 56.195312 185.367188 56.65625 185.371094 L 90.382812 185.371094 C 91.851562 188.804688 93.480469 192.09375 95.199219 195.246094 L 56.65625 195.246094 C 55.898438 195.246094 55.148438 195.171875 54.402344 195.023438 C 53.660156 194.875 52.9375 194.65625 52.238281 194.367188 C 51.539062 194.078125 50.871094 193.722656 50.242188 193.300781 C 49.613281 192.878906 49.027344 192.402344 48.492188 191.867188 C 47.957031 191.328125 47.480469 190.746094 47.058594 190.117188 C 46.636719 189.488281 46.28125 188.820312 45.992188 188.121094 C 45.699219 187.421875 45.480469 186.699219 45.332031 185.957031 C 45.1875 185.214844 45.113281 184.464844 45.113281 183.707031 L 45.113281 165.421875 L 28.984375 165.421875 C 28.226562 165.421875 27.476562 165.34375 26.730469 165.195312 C 25.988281 165.046875 25.265625 164.824219 24.566406 164.535156 C 23.867188 164.242188 23.203125 163.886719 22.574219 163.464844 C 21.945312 163.042969 21.359375 162.5625 20.824219 162.027344 C 20.289062 161.492188 19.8125 160.90625 19.390625 160.277344 C 18.96875 159.648438 18.613281 158.984375 18.324219 158.28125 C 18.03125 157.582031 17.8125 156.859375 17.664062 156.117188 C 17.515625 155.375 17.441406 154.625 17.441406 153.867188 L 17.441406 15.820312 C 17.4375 15.0625 17.507812 14.308594 17.652344 13.5625 C 17.796875 12.816406 18.015625 12.089844 18.304688 11.390625 C 18.59375 10.6875 18.945312 10.019531 19.367188 9.382812 C 19.789062 8.75 20.265625 8.164062 20.800781 7.628906 C 21.339844 7.089844 21.921875 6.609375 22.554688 6.183594 C 23.183594 5.761719 23.851562 5.402344 24.554688 5.113281 C 25.253906 4.820312 25.980469 4.601562 26.726562 4.453125 C 27.46875 4.304688 28.222656 4.230469 28.984375 4.230469 L 150.328125 4.230469 C 151.085938 4.230469 151.835938 4.300781 152.582031 4.449219 C 153.324219 4.597656 154.046875 4.816406 154.746094 5.105469 C 155.445312 5.398438 156.113281 5.753906 156.742188 6.171875 C 157.371094 6.59375 157.957031 7.074219 158.492188 7.609375 C 159.027344 8.144531 159.503906 8.726562 159.925781 9.355469 C 160.347656 9.988281 160.703125 10.652344 160.992188 11.351562 C 161.285156 12.050781 161.503906 12.773438 161.648438 13.515625 C 161.796875 14.257812 161.871094 15.011719 161.871094 15.769531 L 161.871094 35.234375 Z M 51.699219 107.921875 C 51.363281 107.921875 51.035156 107.890625 50.707031 107.824219 C 50.378906 107.757812 50.0625 107.664062 49.753906 107.535156 C 49.445312 107.40625 49.152344 107.25 48.875 107.066406 C 48.597656 106.882812 48.339844 106.671875 48.105469 106.433594 C 47.871094 106.199219 47.660156 105.941406 47.472656 105.664062 C 47.289062 105.386719 47.132812 105.09375 47.003906 104.785156 C 46.875 104.476562 46.78125 104.160156 46.714844 103.832031 C 46.648438 103.507812 46.617188 103.175781 46.617188 102.84375 C 46.617188 102.507812 46.648438 102.179688 46.714844 101.851562 C 46.78125 101.523438 46.875 101.207031 47.003906 100.898438 C 47.132812 100.589844 47.289062 100.296875 47.472656 100.019531 C 47.660156 99.742188 47.871094 99.488281 48.105469 99.25 C 48.339844 99.015625 48.597656 98.804688 48.875 98.621094 C 49.152344 98.433594 49.445312 98.277344 49.753906 98.148438 C 50.0625 98.023438 50.378906 97.925781 50.707031 97.859375 C 51.035156 97.796875 51.363281 97.761719 51.699219 97.761719 L 89.144531 97.761719 C 89.476562 97.761719 89.808594 97.796875 90.136719 97.859375 C 90.460938 97.925781 90.78125 98.019531 91.089844 98.148438 C 91.398438 98.277344 91.691406 98.433594 91.96875 98.617188 C 92.246094 98.800781 92.503906 99.011719 92.742188 99.25 C 92.976562 99.484375 93.1875 99.742188 93.375 100.019531 C 93.558594 100.296875 93.714844 100.589844 93.84375 100.898438 C 93.972656 101.207031 94.066406 101.523438 94.132812 101.851562 C 94.199219 102.179688 94.230469 102.507812 94.230469 102.84375 C 94.230469 103.175781 94.199219 103.507812 94.132812 103.835938 C 94.066406 104.160156 93.972656 104.480469 93.84375 104.789062 C 93.714844 105.097656 93.558594 105.390625 93.375 105.667969 C 93.1875 105.945312 92.976562 106.199219 92.742188 106.4375 C 92.503906 106.671875 92.246094 106.882812 91.96875 107.070312 C 91.691406 107.253906 91.398438 107.410156 91.089844 107.539062 C 90.78125 107.664062 90.460938 107.761719 90.136719 107.824219 C 89.808594 107.890625 89.476562 107.921875 89.144531 107.921875 Z M 51.699219 78.277344 C 51.363281 78.277344 51.035156 78.246094 50.707031 78.179688 C 50.378906 78.113281 50.0625 78.019531 49.753906 77.890625 C 49.445312 77.761719 49.152344 77.605469 48.875 77.421875 C 48.597656 77.238281 48.339844 77.027344 48.105469 76.789062 C 47.871094 76.554688 47.660156 76.296875 47.472656 76.019531 C 47.289062 75.742188 47.132812 75.449219 47.003906 75.140625 C 46.875 74.835938 46.78125 74.515625 46.714844 74.1875 C 46.648438 73.863281 46.617188 73.53125 46.617188 73.199219 C 46.617188 72.863281 46.648438 72.535156 46.714844 72.207031 C 46.78125 71.878906 46.875 71.5625 47.003906 71.253906 C 47.132812 70.945312 47.289062 70.652344 47.472656 70.375 C 47.660156 70.097656 47.871094 69.84375 48.105469 69.605469 C 48.339844 69.371094 48.597656 69.160156 48.875 68.976562 C 49.152344 68.789062 49.445312 68.632812 49.753906 68.503906 C 50.0625 68.378906 50.378906 68.28125 50.707031 68.214844 C 51.035156 68.152344 51.363281 68.117188 51.699219 68.117188 L 128.359375 68.117188 C 128.691406 68.117188 129.023438 68.152344 129.351562 68.214844 C 129.675781 68.28125 129.996094 68.375 130.304688 68.503906 C 130.613281 68.632812 130.90625 68.789062 131.183594 68.972656 C 131.460938 69.160156 131.71875 69.367188 131.953125 69.605469 C 132.191406 69.839844 132.402344 70.097656 132.585938 70.375 C 132.773438 70.652344 132.929688 70.945312 133.058594 71.253906 C 133.183594 71.5625 133.28125 71.878906 133.347656 72.207031 C 133.410156 72.535156 133.445312 72.863281 133.445312 73.199219 C 133.445312 73.53125 133.410156 73.863281 133.347656 74.191406 C 133.28125 74.515625 133.183594 74.835938 133.058594 75.144531 C 132.929688 75.453125 132.773438 75.746094 132.585938 76.023438 C 132.402344 76.300781 132.191406 76.554688 131.953125 76.792969 C 131.71875 77.027344 131.460938 77.238281 131.183594 77.421875 C 130.90625 77.609375 130.613281 77.765625 130.304688 77.890625 C 129.996094 78.019531 129.675781 78.117188 129.351562 78.179688 C 129.023438 78.246094 128.691406 78.277344 128.359375 78.277344 Z M 51.699219 48.632812 C 51.378906 48.613281 51.0625 48.566406 50.75 48.488281 C 50.441406 48.40625 50.136719 48.300781 49.847656 48.164062 C 49.558594 48.027344 49.28125 47.867188 49.019531 47.679688 C 48.761719 47.492188 48.519531 47.28125 48.300781 47.046875 C 48.082031 46.8125 47.882812 46.5625 47.710938 46.289062 C 47.539062 46.019531 47.394531 45.734375 47.277344 45.4375 C 47.15625 45.140625 47.066406 44.832031 47.007812 44.515625 C 46.945312 44.203125 46.917969 43.882812 46.917969 43.5625 C 46.917969 43.242188 46.945312 42.921875 47.007812 42.609375 C 47.066406 42.292969 47.15625 41.988281 47.277344 41.6875 C 47.394531 41.390625 47.539062 41.105469 47.710938 40.835938 C 47.882812 40.5625 48.082031 40.3125 48.300781 40.078125 C 48.519531 39.84375 48.761719 39.632812 49.019531 39.445312 C 49.28125 39.257812 49.558594 39.097656 49.847656 38.960938 C 50.136719 38.824219 50.441406 38.71875 50.75 38.640625 C 51.0625 38.558594 51.378906 38.511719 51.699219 38.492188 L 128.375 38.492188 C 128.695312 38.511719 129.011719 38.558594 129.324219 38.640625 C 129.632812 38.71875 129.933594 38.824219 130.226562 38.960938 C 130.515625 39.097656 130.792969 39.257812 131.050781 39.445312 C 131.3125 39.632812 131.554688 39.84375 131.773438 40.078125 C 131.992188 40.3125 132.191406 40.5625 132.363281 40.835938 C 132.535156 41.105469 132.679688 41.390625 132.796875 41.6875 C 132.917969 41.988281 133.007812 42.292969 133.066406 42.609375 C 133.125 42.921875 133.15625 43.242188 133.15625 43.5625 C 133.15625 43.882812 133.125 44.203125 133.066406 44.515625 C 133.007812 44.832031 132.917969 45.140625 132.796875 45.4375 C 132.679688 45.734375 132.535156 46.019531 132.363281 46.289062 C 132.191406 46.5625 131.992188 46.8125 131.773438 47.046875 C 131.554688 47.28125 131.3125 47.492188 131.050781 47.679688 C 130.792969 47.867188 130.515625 48.027344 130.226562 48.164062 C 129.933594 48.300781 129.632812 48.40625 129.324219 48.488281 C 129.011719 48.566406 128.695312 48.613281 128.375 48.632812 Z M 51.699219 48.632812 " fill-opacity="1" fill-rule="evenodd"/></g></svg>